<?xml version="1.0" encoding="UTF-8" standalone="no"?>
<!DOCTYPE svg PUBLIC "-//W3C//DTD SVG 1.1//EN" "http://www.w3.org/Graphics/SVG/1.1/DTD/svg11.dtd">
<svg width="100%" height="100%" viewBox="0 0 1000 156" version="1.1" xmlns="http://www.w3.org/2000/svg" xmlns:xlink="http://www.w3.org/1999/xlink" xml:space="preserve" xmlns:serif="http://www.serif.com/" style="fill-rule:evenodd;clip-rule:evenodd;stroke-linecap:round;stroke-linejoin:round;stroke-miterlimit:1.5;">
    <g transform="matrix(2.71245,0,0,2.71245,-81.884,-166.673)">
        <rect x="79" y="67" width="45" height="45" style="fill:white;stroke:black;stroke-width:0.37px;"/>
    </g>
    <g transform="matrix(2.71245,0,0,2.71245,40.1763,-166.673)">
        <rect x="79" y="67" width="45" height="45" style="fill:white;stroke:black;stroke-width:0.37px;"/>
    </g>
    <g transform="matrix(2.71245,0,0,2.71245,159.524,-166.673)">
        <rect x="79" y="67" width="45" height="45" style="fill:white;stroke:black;stroke-width:0.37px;"/>
    </g>
    <g transform="matrix(2.71245,0,0,2.71245,281.584,-166.673)">
        <rect x="79" y="67" width="45" height="45" style="fill:white;stroke:black;stroke-width:0.37px;"/>
    </g>
    <g transform="matrix(2.71245,0,0,2.71245,400.932,-166.673)">
        <rect x="79" y="67" width="45" height="45" style="fill:white;stroke:black;stroke-width:0.37px;"/>
    </g>
    <g transform="matrix(2.71245,0,0,2.71245,520.28,-166.673)">
        <rect x="79" y="67" width="45" height="45" style="fill:white;stroke:black;stroke-width:0.37px;"/>
    </g>
    <g transform="matrix(2.71245,0,0,4.26242,-118.6,-270.447)">
        <path d="M48,83.906L48,80.844L76.125,80.844L76.125,78L83,82.375L76.125,86.75L76.125,83.906L48,83.906Z" style="stroke:black;stroke-width:0.28px;"/>
    </g>
    <g transform="matrix(2.71245,-6.64359e-16,1.04399e-15,4.26242,754.615,-269.867)">
        <path d="M48,83.906L48,80.844L76.125,80.844L76.125,78L83,82.375L76.125,86.75L76.125,83.906L48,83.906Z" style="stroke:black;stroke-width:0.28px;"/>
    </g>
    <g transform="matrix(2.71245,0,0,2.71245,550.117,-220.922)">
        <text x="87.685px" y="114.781px" style="font-family:'ArialMT', 'Arial', sans-serif;font-size:12px;">1</text>
    </g>
    <g transform="matrix(2.71245,0,0,2.71245,428.057,-223.634)">
        <text x="87.685px" y="114.781px" style="font-family:'ArialMT', 'Arial', sans-serif;font-size:12px;">2</text>
    </g>
    <g transform="matrix(2.71245,0,0,2.71245,308.709,-223.634)">
        <text x="87.685px" y="114.781px" style="font-family:'ArialMT', 'Arial', sans-serif;font-size:12px;">3</text>
    </g>
    <g transform="matrix(2.71245,0,0,2.71245,189.361,-223.634)">
        <text x="87.685px" y="114.781px" style="font-family:'ArialMT', 'Arial', sans-serif;font-size:12px;">4</text>
    </g>
    <g transform="matrix(2.71245,0,0,2.71245,67.3008,-223.634)">
        <text x="87.685px" y="114.781px" style="font-family:'ArialMT', 'Arial', sans-serif;font-size:12px;">5</text>
    </g>
    <g transform="matrix(2.71245,0,0,2.71245,-49.3346,-9.35051)">
        <text x="86.504px" y="36.397px" style="font-family:'ArialMT', 'Arial', sans-serif;font-size:12px;">6</text>
    </g>
    <g transform="matrix(2.71245,0,0,2.71245,-34.5136,7.77327)">
        <text x="18.752px" y="14.892px" style="font-family:'NanumGothic-Bold', 'NanumGothic', sans-serif;font-weight:700;font-size:11.74px;">Input</text>
    </g>
    <g transform="matrix(2.71245,0,0,2.71245,827.275,7.32843)">
        <text x="18.752px" y="14.892px" style="font-family:'NanumGothic-Bold', 'NanumGothic', sans-serif;font-weight:700;font-size:11.74px;">Output</text>
    </g>
</svg>
