<?xml version="1.0" encoding="UTF-8" standalone="no"?>
<!DOCTYPE svg PUBLIC "-//W3C//DTD SVG 1.1//EN" "http://www.w3.org/Graphics/SVG/1.1/DTD/svg11.dtd">
<svg width="100%" height="100%" viewBox="0 0 1000 221" version="1.1" xmlns="http://www.w3.org/2000/svg" xmlns:xlink="http://www.w3.org/1999/xlink" xml:space="preserve" xmlns:serif="http://www.serif.com/" style="fill-rule:evenodd;clip-rule:evenodd;stroke-linecap:round;stroke-linejoin:round;stroke-miterlimit:1.5;">
    <g transform="matrix(3.06646,0,0,3.06646,-80.9937,-181.811)">
        <rect x="79" y="67" width="45" height="45" style="fill:white;stroke:black;stroke-width:0.33px;"/>
    </g>
    <g transform="matrix(3.06646,0,0,3.06646,56.9968,-181.811)">
        <rect x="79" y="67" width="45" height="45" style="fill:white;stroke:black;stroke-width:0.33px;"/>
    </g>
    <g transform="matrix(3.06646,0,0,3.06646,191.921,-181.811)">
        <rect x="79" y="67" width="45" height="45" style="fill:white;stroke:black;stroke-width:0.33px;"/>
    </g>
    <g transform="matrix(3.06646,0,0,3.06646,329.911,-181.811)">
        <rect x="79" y="67" width="45" height="45" style="fill:white;stroke:black;stroke-width:0.33px;"/>
    </g>
    <g transform="matrix(3.06646,0,0,3.06646,464.835,-181.811)">
        <rect x="79" y="67" width="45" height="45" style="fill:white;stroke:black;stroke-width:0.33px;"/>
    </g>
    <g transform="matrix(3.06646,0,0,3.06646,599.759,-181.811)">
        <rect x="79" y="67" width="45" height="45" style="fill:white;stroke:black;stroke-width:0.33px;"/>
    </g>
    <g transform="matrix(3.06646,0,0,4.81872,-133.123,-321.554)">
        <path d="M48,83.906L48,80.844L76.125,80.844L76.125,78L83,82.375L76.125,86.75L76.125,83.906L48,83.906Z" style="stroke:black;stroke-width:0.25px;"/>
    </g>
    <g transform="matrix(-3.06646,3.75533e-16,-5.90123e-16,-4.81872,265.516,527.526)">
        <path d="M48,83.906L48,80.844L76.125,80.844L76.125,78L83,82.375L76.125,86.75L76.125,83.906L48,83.906Z" style="stroke:black;stroke-width:0.25px;"/>
    </g>
    <g transform="matrix(3.06646,0,0,3.06646,633.491,-243.14)">
        <text x="87.685px" y="114.781px" style="font-family:'ArialMT', 'Arial', sans-serif;font-size:12px;">1</text>
    </g>
    <g transform="matrix(3.06646,0,0,3.06646,495.5,-246.207)">
        <text x="87.685px" y="114.781px" style="font-family:'ArialMT', 'Arial', sans-serif;font-size:12px;">2</text>
    </g>
    <g transform="matrix(3.06646,0,0,3.06646,360.576,-246.207)">
        <text x="87.685px" y="114.781px" style="font-family:'ArialMT', 'Arial', sans-serif;font-size:12px;">3</text>
    </g>
    <g transform="matrix(3.06646,0,0,3.06646,225.652,-246.207)">
        <text x="87.685px" y="114.781px" style="font-family:'ArialMT', 'Arial', sans-serif;font-size:12px;">4</text>
    </g>
    <g transform="matrix(3.06646,0,0,3.06646,87.6614,-246.207)">
        <text x="87.685px" y="114.781px" style="font-family:'ArialMT', 'Arial', sans-serif;font-size:12px;">5</text>
    </g>
    <g transform="matrix(3.06646,0,0,3.06646,-44.1962,-3.95689)">
        <text x="86.504px" y="36.397px" style="font-family:'ArialMT', 'Arial', sans-serif;font-size:12px;">6</text>
    </g>
    <g transform="matrix(3.06646,0,0,3.06646,-38.0633,-7.02335)">
        <text x="18.752px" y="14.892px" style="font-family:'NanumGothic-Bold', 'NanumGothic', sans-serif;font-weight:700;font-size:11.74px;">Input</text>
    </g>
    <g transform="matrix(3.06646,0,0,3.06646,-41.0633,149.698)">
        <text x="18.752px" y="14.892px" style="font-family:'NanumGothic-Bold', 'NanumGothic', sans-serif;font-weight:700;font-size:11.74px;">Output</text>
    </g>
</svg>
